<svg version="1.0" xmlns="http://www.w3.org/2000/svg"
 viewBox="0 0 6400 6400">
<g transform="translate(0,6400) scale(1,-1)"
fill="#2EE59D" stroke="none">
<path d="M1531 4607 c-13 -6 -34 -25 -45 -40 -46 -62 -51 -51 365 -867 212
-415 493 -966 625 -1225 238 -470 239 -470 314 -546 113 -115 244 -169 405
-169 187 0 365 84 464 218 52 69 95 153 1125 2185 89 177 156 321 156 336 0
34 -37 91 -70 108 -38 19 -94 16 -123 -7 -29 -23 -89 -136 -482 -915 -153
-302 -281 -554 -285 -560 -4 -5 -107 -208 -230 -450 -240 -473 -272 -529 -328
-574 -81 -63 -119 -76 -222 -76 -89 0 -99 2 -158 34 -35 19 -81 54 -102 78
-34 39 -346 645 -1143 2216 -129 254 -139 267 -209 267 -18 0 -44 -6 -57 -13z"/>
<path d="M1928 4605 c-34 -19 -58 -63 -58 -108 0 -24 42 -116 146 -318 80
-156 194 -378 254 -494 59 -115 196 -385 305 -600 332 -655 425 -833 451 -864
84 -100 268 -97 355 8 17 20 99 171 183 336 195 385 727 1429 862 1693 110
216 123 260 88 310 -35 50 -115 67 -168 34 -29 -17 -38 -35 -733 -1402 -102
-201 -190 -371 -195 -377 -26 -32 -88 0 -88 45 0 25 85 196 506 1024 199 390
294 587 294 608 0 44 -25 87 -62 106 -43 22 -113 14 -143 -17 -12 -13 -153
-280 -313 -594 -378 -740 -406 -795 -412 -795 -3 0 -44 78 -92 173 -48 94
-162 318 -253 497 -92 179 -211 413 -265 520 -107 211 -124 230 -195 230 -68
0 -125 -54 -125 -119 0 -19 28 -86 74 -174 330 -631 926 -1822 926 -1849 -1
-27 -32 -68 -52 -68 -27 0 -55 30 -73 77 -16 42 -262 529 -677 1343 -72 140
-187 365 -255 500 -69 135 -134 253 -143 264 -25 25 -106 32 -142 11z"/>
</g>
</svg>
